# xmcd
#
# Track frame offsets:
#	150
#	16039
#	35841
#	51012
#	66280
#	90697
#	108996
#	124101
#	136024
#	156545
#	170562
#	190663
#	206116
#	223723
#
# Disc length: 3198 seconds
#
# Revision: 0
# Processed by: cddbd v1.5.2PL0 Copyright (c) Steve Scherf et al.
# Submitted via: audiograbber 1.80.04
#
DISCID=c80c7c0e
DTITLE=Flávio José - Acústico
DYEAR=2003
DGENRE=Forró
TTITLE0=Meu Cenário
TTITLE1=Que Nem Vem Vem - A Poeira e a Estrada - Caia Por Cima de Mim
TTITLE2=Companheira (Part. Esp. Ladja Betânia)
TTITLE3=Vendavais
TTITLE4=Sem Ferrolho e Sem Tramela - Tonha - Novilha Rainha
TTITLE5=Casa Velha de Sapê
TTITLE6=Recado
TTITLE7=Paixão Escondida
TTITLE8=Já Não Conserto Mais - Carência - Incerteza
TTITLE9=Tempos de Criança
TTITLE10=Menino Chorão - Coração Que Ama - Amor de Verdade
TTITLE11=Devolva
TTITLE12=Cheiro de Forró
TTITLE13=Zé Pequeno No Forró
EXTD=dayvisondj@hotmail.com\nDayvison DJ Is Of Recife - PE - Brazil\n8690-4073
EXTT0=
EXTT1=
EXTT2=
EXTT3=
EXTT4=
EXTT5=
EXTT6=
EXTT7=
EXTT8=
EXTT9=
EXTT10=
EXTT11=
EXTT12=
EXTT13=
PLAYORDER=
